<svg xmlns="http://www.w3.org/2000/svg" xmlns:xlink="http://www.w3.org/1999/xlink" width="500" zoomAndPan="magnify" viewBox="0 0 375 374.999991" height="500" preserveAspectRatio="xMidYMid meet" version="1.0"><defs><clipPath id="6107ab0397"><path d="M 3.492188 3.492188 L 371.742188 3.492188 L 371.742188 371.742188 L 3.492188 371.742188 Z M 3.492188 3.492188 " clip-rule="nonzero"/></clipPath></defs><g clip-path="url(#6107ab0397)"><path fill="#ff0000" d="M 371.742188 187.617188 C 371.742188 190.628906 371.667969 193.640625 371.519531 196.648438 C 371.371094 199.660156 371.148438 202.664062 370.855469 205.664062 C 370.558594 208.660156 370.191406 211.652344 369.746094 214.632812 C 369.304688 217.613281 368.789062 220.582031 368.203125 223.535156 C 367.613281 226.492188 366.953125 229.429688 366.222656 232.355469 C 365.492188 235.277344 364.6875 238.179688 363.8125 241.0625 C 362.9375 243.949219 361.992188 246.808594 360.976562 249.644531 C 359.960938 252.484375 358.878906 255.292969 357.726562 258.078125 C 356.570312 260.859375 355.351562 263.613281 354.0625 266.339844 C 352.773438 269.0625 351.417969 271.753906 350 274.410156 C 348.578125 277.070312 347.09375 279.691406 345.542969 282.273438 C 343.996094 284.859375 342.382812 287.40625 340.710938 289.910156 C 339.035156 292.414062 337.300781 294.878906 335.507812 297.296875 C 333.710938 299.71875 331.859375 302.09375 329.945312 304.421875 C 328.035156 306.753906 326.066406 309.035156 324.042969 311.265625 C 322.019531 313.5 319.941406 315.679688 317.8125 317.8125 C 315.679688 319.941406 313.5 322.019531 311.265625 324.042969 C 309.035156 326.066406 306.753906 328.035156 304.421875 329.945312 C 302.09375 331.859375 299.71875 333.710938 297.296875 335.507812 C 294.878906 337.300781 292.414062 339.035156 289.910156 340.710938 C 287.40625 342.382812 284.859375 343.996094 282.273438 345.542969 C 279.691406 347.09375 277.070312 348.578125 274.410156 350 C 271.753906 351.417969 269.0625 352.773438 266.339844 354.0625 C 263.613281 355.351562 260.859375 356.570312 258.078125 357.726562 C 255.292969 358.878906 252.484375 359.960938 249.644531 360.976562 C 246.808594 361.992188 243.949219 362.9375 241.0625 363.8125 C 238.179688 364.6875 235.277344 365.492188 232.355469 366.222656 C 229.429688 366.953125 226.492188 367.613281 223.535156 368.203125 C 220.582031 368.789062 217.613281 369.304688 214.632812 369.746094 C 211.652344 370.191406 208.660156 370.558594 205.664062 370.855469 C 202.664062 371.148438 199.660156 371.371094 196.648438 371.519531 C 193.640625 371.667969 190.628906 371.742188 187.617188 371.742188 C 184.601562 371.742188 181.589844 371.667969 178.582031 371.519531 C 175.570312 371.371094 172.566406 371.148438 169.566406 370.855469 C 166.570312 370.558594 163.578125 370.191406 160.597656 369.746094 C 157.617188 369.304688 154.648438 368.789062 151.695312 368.203125 C 148.738281 367.613281 145.800781 366.953125 142.878906 366.222656 C 139.953125 365.492188 137.050781 364.6875 134.167969 363.8125 C 131.285156 362.9375 128.421875 361.992188 125.585938 360.976562 C 122.75 359.960938 119.9375 358.878906 117.152344 357.726562 C 114.371094 356.570312 111.617188 355.351562 108.890625 354.0625 C 106.167969 352.773438 103.476562 351.417969 100.820312 350 C 98.164062 348.578125 95.542969 347.09375 92.957031 345.542969 C 90.371094 343.996094 87.828125 342.382812 85.320312 340.710938 C 82.816406 339.035156 80.351562 337.300781 77.933594 335.507812 C 75.511719 333.710938 73.136719 331.859375 70.808594 329.945312 C 68.480469 328.035156 66.199219 326.066406 63.964844 324.042969 C 61.730469 322.019531 59.550781 319.941406 57.417969 317.8125 C 55.289062 315.679688 53.210938 313.5 51.1875 311.265625 C 49.164062 309.035156 47.195312 306.753906 45.285156 304.421875 C 43.375 302.09375 41.519531 299.71875 39.726562 297.296875 C 37.929688 294.878906 36.195312 292.414062 34.519531 289.910156 C 32.847656 287.40625 31.234375 284.859375 29.6875 282.273438 C 28.136719 279.691406 26.652344 277.070312 25.230469 274.410156 C 23.8125 271.753906 22.457031 269.0625 21.167969 266.339844 C 19.878906 263.613281 18.660156 260.859375 17.507812 258.078125 C 16.351562 255.292969 15.269531 252.484375 14.253906 249.644531 C 13.238281 246.808594 12.292969 243.949219 11.417969 241.0625 C 10.542969 238.179688 9.742188 235.277344 9.007812 232.355469 C 8.277344 229.429688 7.617188 226.492188 7.027344 223.535156 C 6.441406 220.582031 5.925781 217.613281 5.484375 214.632812 C 5.042969 211.652344 4.671875 208.660156 4.378906 205.664062 C 4.082031 202.664062 3.859375 199.660156 3.710938 196.648438 C 3.566406 193.640625 3.492188 190.628906 3.492188 187.617188 C 3.492188 184.601562 3.566406 181.589844 3.710938 178.582031 C 3.859375 175.570312 4.082031 172.566406 4.378906 169.566406 C 4.671875 166.570312 5.042969 163.578125 5.484375 160.597656 C 5.925781 157.617188 6.441406 154.648438 7.027344 151.695312 C 7.617188 148.738281 8.277344 145.800781 9.007812 142.875 C 9.742188 139.953125 10.542969 137.050781 11.417969 134.167969 C 12.292969 131.285156 13.238281 128.421875 14.253906 125.585938 C 15.269531 122.75 16.351562 119.9375 17.507812 117.152344 C 18.660156 114.371094 19.878906 111.617188 21.167969 108.890625 C 22.457031 106.167969 23.8125 103.476562 25.230469 100.820312 C 26.652344 98.164062 28.136719 95.542969 29.6875 92.957031 C 31.234375 90.371094 32.847656 87.828125 34.519531 85.320312 C 36.195312 82.816406 37.929688 80.351562 39.726562 77.933594 C 41.519531 75.511719 43.375 73.136719 45.285156 70.808594 C 47.195312 68.480469 49.164062 66.199219 51.1875 63.964844 C 53.210938 61.730469 55.289062 59.550781 57.417969 57.417969 C 59.550781 55.289062 61.730469 53.210938 63.964844 51.1875 C 66.199219 49.164062 68.480469 47.195312 70.808594 45.285156 C 73.136719 43.375 75.511719 41.519531 77.933594 39.726562 C 80.351562 37.929688 82.816406 36.195312 85.320312 34.519531 C 87.828125 32.847656 90.371094 31.234375 92.957031 29.6875 C 95.542969 28.136719 98.164062 26.652344 100.820312 25.230469 C 103.476562 23.8125 106.167969 22.457031 108.890625 21.167969 C 111.617188 19.878906 114.371094 18.660156 117.152344 17.507812 C 119.9375 16.351562 122.75 15.269531 125.585938 14.253906 C 128.421875 13.238281 131.285156 12.292969 134.167969 11.417969 C 137.050781 10.542969 139.953125 9.742188 142.878906 9.007812 C 145.800781 8.277344 148.738281 7.617188 151.695312 7.027344 C 154.648438 6.441406 157.617188 5.925781 160.597656 5.484375 C 163.578125 5.042969 166.570312 4.671875 169.566406 4.378906 C 172.566406 4.082031 175.570312 3.859375 178.582031 3.710938 C 181.589844 3.566406 184.601562 3.492188 187.617188 3.492188 C 190.628906 3.492188 193.640625 3.566406 196.648438 3.710938 C 199.660156 3.859375 202.664062 4.082031 205.664062 4.378906 C 208.660156 4.671875 211.652344 5.042969 214.632812 5.484375 C 217.613281 5.925781 220.582031 6.441406 223.535156 7.027344 C 226.492188 7.617188 229.429688 8.277344 232.355469 9.007812 C 235.277344 9.742188 238.179688 10.542969 241.0625 11.417969 C 243.949219 12.292969 246.808594 13.238281 249.644531 14.253906 C 252.484375 15.269531 255.292969 16.351562 258.078125 17.507812 C 260.859375 18.660156 263.613281 19.878906 266.339844 21.167969 C 269.0625 22.457031 271.753906 23.8125 274.410156 25.230469 C 277.070312 26.652344 279.691406 28.136719 282.273438 29.6875 C 284.859375 31.234375 287.40625 32.847656 289.910156 34.519531 C 292.414062 36.195312 294.878906 37.929688 297.296875 39.726562 C 299.71875 41.519531 302.09375 43.375 304.421875 45.285156 C 306.753906 47.195312 309.035156 49.164062 311.265625 51.1875 C 313.5 53.210938 315.679688 55.289062 317.8125 57.417969 C 319.941406 59.550781 322.019531 61.730469 324.042969 63.964844 C 326.066406 66.199219 328.035156 68.480469 329.945312 70.808594 C 331.859375 73.136719 333.710938 75.511719 335.507812 77.933594 C 337.300781 80.351562 339.035156 82.816406 340.710938 85.320312 C 342.382812 87.828125 343.996094 90.371094 345.546875 92.957031 C 347.09375 95.542969 348.578125 98.164062 350 100.820312 C 351.417969 103.476562 352.773438 106.167969 354.0625 108.890625 C 355.351562 111.617188 356.570312 114.371094 357.726562 117.152344 C 358.878906 119.9375 359.960938 122.75 360.976562 125.585938 C 361.992188 128.421875 362.9375 131.285156 363.8125 134.167969 C 364.6875 137.050781 365.492188 139.953125 366.222656 142.875 C 366.953125 145.800781 367.613281 148.738281 368.203125 151.695312 C 368.789062 154.648438 369.304688 157.617188 369.746094 160.597656 C 370.191406 163.578125 370.558594 166.570312 370.855469 169.566406 C 371.148438 172.566406 371.371094 175.570312 371.519531 178.582031 C 371.667969 181.589844 371.742188 184.601562 371.742188 187.617188 Z M 371.742188 187.617188 " fill-opacity="1" fill-rule="nonzero"/></g><path fill="#ffffff" d="M 189.421875 254.414062 C 176.40625 253.660156 163.117188 245.496094 155.171875 236.125 C 145.960938 225.265625 142.160156 210.496094 143.132812 198.367188 C 145.992188 162.730469 184.746094 141.667969 199.089844 126.101562 C 208.695312 115.679688 210.707031 110.605469 212.855469 105.242188 C 217.003906 94.871094 217.671875 82.71875 209.441406 81.808594 C 201.582031 80.941406 195.117188 93.304688 192.226562 101.753906 C 189.632812 109.347656 187.902344 116.972656 189.46875 128.425781 C 190.167969 133.566406 209.496094 277.167969 209.820312 279.398438 C 213.078125 301.640625 200.355469 310.847656 187.367188 312.484375 C 159.328125 316.019531 150.328125 287.519531 162.898438 276.699219 C 172.574219 268.363281 186.652344 275.519531 185.890625 289.21875 C 185.21875 301.355469 173.316406 301.714844 170.277344 301.433594 C 174.945312 309.804688 210.132812 314.179688 204.726562 276.363281 C 203.96875 271.046875 186.109375 136.097656 185.667969 133.074219 C 182.394531 110.46875 181.894531 92.570312 193.671875 71.691406 C 198.019531 63.980469 204.894531 59.003906 208.269531 59.65625 C 209.007812 59.796875 209.75 60.070312 210.335938 60.675781 C 219.371094 69.984375 222.140625 90.632812 221.152344 102.488281 C 220.140625 114.632812 219.574219 127.203125 207.5 141.863281 C 202.824219 147.535156 188.566406 160.03125 180.390625 167.214844 C 168.90625 177.300781 160.574219 186.113281 156.0625 196.742188 C 150.996094 208.6875 150.140625 223.726562 161.582031 237.070312 C 168.164062 244.609375 179.085938 249.960938 188.277344 250.074219 C 213.835938 250.390625 221.296875 237.792969 221.535156 223.523438 C 221.929688 200.035156 193.570312 191.152344 181.910156 207.304688 C 175.148438 216.671875 178.117188 226.527344 182.660156 231.21875 C 184.21875 232.828125 185.960938 234.054688 187.605469 234.738281 C 188.203125 234.984375 189.605469 235.640625 189.207031 236.59375 C 188.878906 237.390625 188.234375 237.433594 187.648438 237.363281 C 180.292969 236.480469 172.152344 229.453125 170.148438 217.367188 C 167.230469 199.746094 182.785156 178.84375 204.976562 182.261719 C 219.507812 184.5 232.996094 197.003906 231.8125 220.285156 C 230.800781 240.238281 214.257812 255.859375 189.417969 254.414062 Z M 189.421875 254.414062 " fill-opacity="1" fill-rule="nonzero"/></svg>